<svg width="104" height="52" viewBox="0 0 104 52" fill="none" xmlns="http://www.w3.org/2000/svg">
<path d="M30.2108 27.7791L24.692 19.8152V27.7791H18.9814V9.45117H24.692V17.2013L30.3621 9.50209H37.1253L30.1738 18.1484L37.2329 27.7791H30.2108Z" fill="white"/>
<path d="M100.654 51.8849C102.502 51.8849 104 50.3893 104 48.5445C104 46.6996 102.502 45.2041 100.654 45.2041C98.8058 45.2041 97.3076 46.6996 97.3076 48.5445C97.3076 50.3893 98.8058 51.8849 100.654 51.8849Z" fill="#00FF84"/>
<path d="M42.3917 6.68077C44.2398 6.68077 45.738 5.18523 45.738 3.34038C45.738 1.49554 44.2398 0 42.3917 0C40.5436 0 39.0454 1.49554 39.0454 3.34038C39.0454 5.18523 40.5436 6.68077 42.3917 6.68077Z" fill="#00FF84"/>
<path d="M45.2471 9.45117H39.5366V27.7791H45.2471V9.45117Z" fill="white"/>
<path d="M39.4287 42.3661C39.4287 36.904 42.7716 32.7354 48.0315 32.7354C50.6614 32.7354 52.7263 33.988 53.705 35.8449V33.2276H59.4155V51.5046H53.705V48.9247C52.7263 50.7442 50.4731 51.9969 47.9575 51.9969C42.5497 52.0003 39.4287 47.8655 39.4287 42.3661ZM53.9303 42.3661C53.9303 39.7488 52.464 37.5864 49.6088 37.5864C46.9418 37.5864 45.2872 39.596 45.2872 42.3661C45.2872 45.1328 46.9385 47.1832 49.6088 47.1832C52.4674 47.1832 53.9303 45.0208 53.9303 42.3661Z" fill="white"/>
<path d="M62.7788 33.2269H68.5263V37.0562C69.1653 34.3268 71.3076 32.9248 73.5239 32.9248C74.1998 32.9248 74.5765 32.9621 75.0272 33.0776L74.9969 38.4582C74.3209 38.3801 74.0115 38.3461 73.2985 38.3461C70.181 38.3461 68.5263 40.3931 68.5263 44.4498V51.504H62.7788V33.2269Z" fill="white"/>
<path d="M76.1904 42.3661C76.1904 36.3745 80.0613 32.7354 85.9568 32.7354C91.5934 32.7354 95.4239 36.2624 95.4239 41.419C95.4239 42.3661 95.3869 42.9364 95.2726 43.9582H81.8976C82.0086 46.3481 83.5892 47.6381 86.1418 47.6381C87.9074 47.6381 89.0341 47.1458 89.5217 46.0086H95.1583C94.5966 49.6104 90.951 52.0003 86.1418 52.0003C79.984 52.0003 76.1904 48.4732 76.1904 42.3661ZM89.7538 40.3564C89.7168 37.9292 88.3648 36.6393 85.9232 36.6393C83.4446 36.6393 81.9413 38.1193 81.9043 40.3564H89.7538Z" fill="white"/>
<path d="M54.3139 22.3374V9.45117H48.5664V22.5242V27.7791H54.3139H62.5131V22.3374H54.3139Z" fill="white"/>
<path d="M71.3749 22.3374V9.45117H65.6274V22.5242V27.7791H71.3749H79.5741V22.3374H71.3749Z" fill="white"/>
<path d="M31.5022 33.2207V39.803H24.6146V33.2207H18.9814V39.803V45.058V51.5521H24.6146V45.058H31.5022V51.5521H37.1387V45.058V39.803V33.2207H31.5022Z" fill="white"/>
<path d="M11.8919 40.6518L8.3808 39.6708C7.19363 39.3143 6.78334 38.7882 6.78334 38.0447C6.78334 37.2334 7.4156 36.7547 8.23283 36.6597C9.42 36.5205 10.3381 37.0399 10.3381 38.3333V38.4181H16.3782V38.3333H16.3749C16.3749 34.684 13.3178 32.6709 8.21265 32.6709C3.55814 32.6709 0.480921 34.9521 0.480921 38.4113C0.480921 41.1848 2.13219 43.0485 5.02108 43.7682L8.64312 44.6847C9.71931 45.0276 10.1531 45.5606 10.1498 46.3957C10.1464 47.3088 9.23839 47.8248 8.31018 47.869C6.96495 47.9301 5.98629 47.1934 5.9123 46.0223H0C0.0874402 49.5188 3.47743 51.9766 8.55232 51.9766C13.3548 51.9766 16.4724 49.7361 16.4724 45.934C16.469 43.1605 14.7438 41.4123 11.8919 40.6518Z" fill="white"/>
<path d="M11.8919 16.9263L8.3808 15.9452C7.19363 15.5887 6.78334 15.0626 6.78334 14.3191C6.78334 13.5078 7.4156 13.0291 8.23283 12.9341C9.42 12.7949 10.3381 13.3143 10.3381 14.6077V14.6925H16.3782V14.6077H16.3749C16.3749 10.9584 13.3178 8.94531 8.21265 8.94531C3.55814 8.94531 0.480921 11.2266 0.480921 14.6858C0.480921 17.4592 2.13219 19.3229 5.02108 20.0426L8.64312 20.9592C9.71931 21.302 10.1531 21.835 10.1498 22.6701C10.1464 23.5833 9.23839 24.0993 8.31018 24.1434C6.96495 24.2045 5.98629 23.4678 5.9123 22.2967H0C0.0874402 25.7932 3.47743 28.251 8.55232 28.251C13.3548 28.251 16.4724 26.0105 16.4724 22.2084C16.469 19.4349 14.7438 17.6867 11.8919 16.9263Z" fill="white"/>
</svg>
